<?xml version="1.0" encoding="UTF-8"?>
<svg id="Layer_1" data-name="Layer 1" xmlns="http://www.w3.org/2000/svg" viewBox="0 0 1049.5 1075.61">
  <g id="Generative_Object" data-name="Generative Object">
    <path fill="#ffb31a" d="M229.97,667.64c-9.62,10.17-25.83,14.14-39.67,10.28-20.77-5.78-29.93-26.61-27.3-47.38,5.21-41.19,22.21-64.9,7.63-112.49-15.55-50.73-60.21-69.18-111.88-66.88-25.56,85.22-8.02,162.09,18.74,244.14,41.35,119.09,100.21,225.63,165.76,333.92l417.78-.3c60.69-100.89,115.35-199.28,156.33-308.16,13.74-38.85,26.31-76.28,33.14-117.55-16.48,24.88-41.97,43.55-72.64,42.8,5.21-45.62-4.17-92.15-31.63-128.4,5.51-11.45,10.17-22.42,12.54-36.34,47.53,6.19,91.08,11.53,138.94-4.98,4.67,23.96,7.18,47.47,5.96,71.58-3.28,64.73-20.59,125.87-41.86,185.85-45.17,120.24-106.43,231.28-175.67,341.53l-468.03.34c-68.69-109.32-131.9-222.49-176.2-342.99C18.01,667.11-2.96,591.54.34,521.6c5.02-106.31,58.9-199.43,123.08-281.32-26.69-10.1-44.36-31.92-47.95-57.73-3.97-28.52,7.71-55.42,32.1-71.08,8.53-5.48,19.11-10.54,30.42-10.54l566.96-.19c-5.79,15.61-16.35,29.7-22.41,46.42l-540.14.23c-13.83,0-22.12,15.28-21.19,26.07,1.14,13.31,11.44,23.49,25.52,23.5l165.98.11v46.02s-131.73.11-131.73.11c-43.05,50.85-82.4,105.38-108.37,167.9l339.7-.05c9.99,38.8,30.02,71.73,61.9,95.99l35.26,22.34c7.23-19.18,20.51-32.64,38.32-39.79,5.77,12.07,12.49,21.52,21.13,31.66-32.57,24.4-56.52,55.87-73.57,92.68-30.9-5.26-37.19-35.97-57.62-50.93-10.77-7.88-23.91-8.47-35.85-2.38-24.08,12.28-17.93,48.38-12.41,74.47l9.19,43.47c3.51,16.59,4.37,32.77.96,48.95-5.14,24.44-23.87,43.24-48.75,45.74-30.91,3.1-57.09-16.05-61.98-46.84-2.94-18.51-1.56-36.71,1.28-55.33l9.37-61.46c4.18-27.45,4.52-62.31-11.5-82.72-7.57-9.64-18.82-14.82-30.81-13.32-25.38,3.19-35.35,33.95-29.56,60.08l10.28,46.39c3.58,16.18,2.58,36.42-7.98,47.58Z"/>
    <path fill="#ffb31a" d="M415.76,877.83c29.79-16.09,56.7-30.51,81.78-51.64-14.35-65.64-8.3-133.92,18.49-195.22,20.43-45.05,51.8-82.95,96.86-106.88-27.25-17.87-44.54-44-50.81-75.07l-31.51,19.28c-11.42,6.99-21.83,13.33-30.34,24.57-46.02-28.34-70.09-84.97-68.1-138.08.93-24.95,11.53-46.68,31.5-62.51-13.3-18.49-34.57-27.69-57.06-28.47l-38.49-1.34c-6.74-.23-11.62-1.29-15.03-7.36-2.53-4.5-2.52-10.68.92-15.16,3.84-5,9.97-5.62,16.09-4.92,22.32,2.53,44.21,3.91,65.54,10.56,18.61,5.8,31.84,18.17,43.82,35.12l28.85-11.31c-6.74-14.98-15.75-29.35-29.91-36.6l-53.52-27.39c-5.21-2.67-6.01-10.95-4.51-15.75,1.32-4.22,8.26-11.07,14.43-8.51,23.15,9.58,44.58,22.98,64.77,37.82,9.24,6.79,15.78,14.81,20.13,25.13l8.82,20.89c14.05-.82,26.44-1.64,39.1.12,40.51,5.65,63.01,36.92,63.6,76.82,4.96.32,9.11,1.63,13.18.97,30.35-116.96,69.63-235.94,154.64-324.2l18.01-18.69c28.79,54.84,40.98,119.21,27.62,181.52l-46.18,35.69c5.78-18.12,12.84-33.48,15.64-51.74,6.11-35.51,2.77-70.34-7.82-105.45l-18.06,22.86c-55.74,77.15-88.19,175.11-111.45,267.34,2.41,2.03,7.53,6.11,9.63,4.23l16.72-15.02,31.49-29.82,18.88-17.51c85.44-79.26,178.67-149.87,289.46-190.53,15.27,65.86,4.34,133.95-38.22,185.45l-22.78,23.64c-2.98,40.65-14.28,75.2-41.1,104.57-32.26,35.32-72.59,47.02-120.19,45.33-27.86-2.79-55.1-4.89-82.47-10.51-.56-1.06-3.51-.32-3.48,1.02.45,25.06-6.63,49.01-21.33,69.17,43.72,44.13,48.05,111.34,28.29,166.83-30.34,85.21-101.42,142.89-186.64,168.99-44.85,13.74-90.89,20.79-139.26,21.77ZM693.12,395.04l91.53-29.49c61.32-19.76,147.99-49.69,190.56-95.6,30.01-32.37,43.45-76.72,40.22-121.11-92.07,40.22-176.44,107.4-250.62,176.9l-21.23,19.89-32.82,31.42c-6.38,6.01-12.97,10.99-17.64,17.99ZM485.83,373.17c2.28,5.13-2.35,12.34-7.44,13.17-5.71.93-9.62,3.25-15.34,2.71,5.43,25.64,16.73,49.09,35.59,66.61,24.32-18.05,50.32-27.48,70.72-50.48,19.17-17.88,32.66-41.89,32.33-68.37-.22-17.85-9.87-34-26.1-40.32-13.29-5.18-27.48-4.62-41.34-2.82l-1.02,15.17c-.15,2.24-3.39,3.81-4.79,3.83-1.83.03-3.89-1.35-4.89-3.49l-5.87-12.46c-8.93,2.42-16.55,4.61-23.61,9.29.84,4.31,2.71,10.76.11,13.68-3.76,4.23-9.72-.56-13.31-5.38-8.26,7.12-18.28,18.26-17.13,29.53.75,7.35,8.99,22.46,15.73,29.68.91.98,5.04-1.2,6.38-.35ZM839.14,426.99c55.79-.94,95.65-39.05,105.31-91.37-25.95,14.21-49.53,24.68-75.21,34.98-43.88,17.53-88.06,30.31-134.27,45.48,35.53,6.35,68.98,11.51,104.18,10.92ZM617.74,561.03c41.18,6.86,74.85,25.34,101.82,55.29.13-29.74-11.72-55.26-31.56-75.66-11.66,6.82-24.39,3.9-37.29,5.1-12.34,1.15-23.78,8.86-32.97,15.27ZM711.21,675.65c-36.19-45.15-80.72-71.89-138.3-76.23-8.14,10.78-15.71,21.44-21.68,34.02,58.17,4.4,109.15,33.57,141.16,81.94,8.06-13.38,13.66-25.85,18.82-39.73ZM647.08,768.68l16.17-15.65c-28.15-44.34-76.58-72.42-129.66-74.82-3.81,12.19-6.07,23.83-7.77,36.73,45.29,3.34,83.72,26.57,108.95,64.08l12.3-10.34ZM595.02,804.47c-18-22.87-42.67-38.42-72.12-42.15.43,22.72,3.37,44.07,8.55,65.92,21.91-5.41,41.98-13.54,63.57-23.77Z"/>
    <path fill="#ffb31a" d="M516.6,384.91c-3.05.47-6.52,2.83-9.91,2.25-7.71-1.33-11.67-9.49-11.23-16.5,3.32,1.69,5.23,3.29,7.52,3.42s5.79-1.46,7.68-3.78l21.45-26.28,16.45-16.45c8.74-8.75,21.97-9.07,31.14.03-8.55,2.35-15.01,3.22-21.15,9.73,12.68,13.47,11.45,33.49-2.62,45.53-11.27,9.64-26.72,10.69-39.33,2.05Z"/>
  </g>
</svg>